<svg xmlns="http://www.w3.org/2000/svg" width="40" height="40" fill="none" class="coolshapes star-10" viewBox="0 0 200 200"><g clip-path="url(#cs_clip_1_star-10)"><mask id="cs_mask_1_star-10" style="mask-type:alpha" width="200" height="200" x="0" y="0" maskUnits="userSpaceOnUse"><path fill="#fff" d="M91.317 6.8l.028-.098c2.483-8.71 14.826-8.71 17.31 0l.027.098.083.293a122 122 0 0084.142 84.142l.293.082.098.028c8.709 2.484 8.709 14.826 0 17.31a5.593 5.593 0 01-.098.028l-.293.082c-40.751 11.541-72.602 43.391-84.142 84.142l-.083.293-.027.098c-2.484 8.709-14.827 8.709-17.31 0a21.647 21.647 0 01-.028-.098l-.082-.293a122.002 122.002 0 00-84.143-84.142l-.292-.082-.098-.028c-8.71-2.484-8.71-14.826 0-17.31l.098-.028.292-.082A122 122 0 0091.235 7.093l.082-.293z"/></mask><g mask="url(#cs_mask_1_star-10)"><path fill="#fff" d="M200 0H0v200h200V0z"/><path fill="url(#paint0_radial_748_4283)" d="M200 0H0v200h200V0z"/><path fill="url(#paint1_radial_748_4283)" d="M200 0H0v200h200V0z"/></g></g><defs><radialGradient id="paint0_radial_748_4283" cx="0" cy="0" r="1" gradientTransform="rotate(116.694 71.023 87.946) scale(199.234)" gradientUnits="userSpaceOnUse"><stop stop-color="#FFF500"/><stop offset="1" stop-color="#FF00D6" stop-opacity="0"/></radialGradient><radialGradient id="paint1_radial_748_4283" cx="0" cy="0" r="1" gradientTransform="rotate(-20.037 348.972 -25.908) scale(135.715)" gradientUnits="userSpaceOnUse"><stop stop-color="#FF00D6"/><stop offset=".461" stop-color="#FF7171" stop-opacity=".84"/><stop offset="1" stop-color="#FFF500" stop-opacity="0"/></radialGradient><clipPath id="cs_clip_1_star-10"><path fill="#fff" d="M0 0H200V200H0z"/></clipPath></defs><g style="mix-blend-mode:overlay" mask="url(#cs_mask_1_star-10)"><path fill="gray" stroke="transparent" d="M200 0H0v200h200V0z" filter="url(#cs_noise_1_star-10)"/></g><defs><filter id="cs_noise_1_star-10" width="100%" height="100%" x="0%" y="0%" filterUnits="objectBoundingBox"><feTurbulence baseFrequency=".6" numOctaves="5" result="out1" seed="4"/><feComposite in="out1" in2="SourceGraphic" operator="in" result="out2"/><feBlend in="SourceGraphic" in2="out2" mode="overlay" result="out3"/></filter></defs></svg>